<svg xmlns="http://www.w3.org/2000/svg" viewBox="0 0 460.32 116.76"><defs><style>.cls-1{fill:#487629;}</style></defs><g id="Capa_2" data-name="Capa 2"><g id="Capa_1-2" data-name="Capa 1"><path class="cls-1" d="M40.11,0H83.54V.32l-21.63,13H38.38q-7.66,0-14.22,13-4.9,7.53-4.9,10A2.91,2.91,0,0,0,22.42,39l.48.16L24.79,39H54.17l.15.16h.16q-7,12.77-7.42,12.95H19.26l-2.05.16-1.73-.16H8.84q-6.75,0-8.37-4.42A6.79,6.79,0,0,1,0,45.17Q0,41,6.47,31L18.32,10.75Q27.4,0,40.11,0"/><path class="cls-1" d="M82.56.16H96.93l.31.32Q96.88.68,85.56,21h22.11l12-20.84h14.69V.48l-29.22,51.8H90.3L90,52l11.69-20.37H79.24Q68.43,51.33,67.39,52.28H52.86v-.16Q81.18,2.17,82.56.16"/><path class="cls-1" d="M139.76,0h59.39V.32l-21.64,13H147.34q-1.49,2.13-4.58,7.89h42v.32L166.89,31.75H136.45l-4.11,7.42h45l.15.16h.16c-4.76,8.5-7.3,12.82-7.58,13h-59.7l-.15-.16h-.17Q139.13.64,139.76,0"/><path class="cls-1" d="M198.87.32h66.49q10.77,0,11.84,4.73l.32,1.9q0,3.94-6.79,15Q261,39.88,253.84,52.28h-14.7V52Q258,18.75,259.05,16.27v-.63c0-1.26-1.42-1.9-4.28-1.9H241.2q-.63.48-18.48,32.06l-3.95,6.48H203.92q0-.44,18-31.59l3.95-7H206.13L184,52.28H169.34q0-.6,24.32-43,4.62-8.53,5.21-9"/><polygon class="cls-1" points="302.08 0.32 302.08 0.64 272.86 52.12 272.7 52.28 258.33 52.28 258.18 52.12 258.01 52.12 287.08 0.32 302.08 0.32"/><path class="cls-1" d="M321.9,0h44.69V.16q-.69.71-18.95,11.53a7.8,7.8,0,0,1-2.84,1.58H322.53q-8.83,0-14.21,11.37-5.85,9-5.85,11v.64c0,1.78,1.22,2.68,3.63,2.68h31.28l.32.32q-1,1.26-7.28,12.79l-20.05.16H293.63q-10.59,0-10.58-6.48v-.47q0-4.42,4.9-11.85Q299.4,13.47,302,9.79q4.9-6.27,15.16-9.16A22.44,22.44,0,0,1,321.9,0"/><path class="cls-1" d="M400.91,0q8.49,0,10.89,5.05l.32,1.9v.48q0,3.36-6,13.1-17.64,30.92-18.32,31.59H373.27l7.11-12.95H358c-.41.43-2.9,4.74-7.43,12.95l-.15.16H335.52v-.16Q357.17,14,359.21,11.05c4-4.42,7.24-7.1,9.63-8A23.17,23.17,0,0,1,378.32.16Zm-35.7,26.38h22.43c3.79-5.9,5.68-9.21,5.68-10v-.63c0-1.68-1.78-2.52-5.37-2.52h-7.41q-8.78,0-13.43,9.64a15.27,15.27,0,0,0-1.9,3.47"/><path class="cls-1" d="M422.58.16h14.53l.16.16h.15L415.17,38.85V39h45.15v.32l-22.58,13h-45v-.16q28.74-50.56,29.85-52"/><path class="cls-1" d="M166.3,64.49h43.43v.31l-21.64,13H164.56q-7.67,0-14.22,13c-3.25,5-4.89,8.35-4.89,10a2.9,2.9,0,0,0,3.16,2.85l.47.16,1.9-.16h29.37l.16.16h.16q-7,12.75-7.42,12.94h-27.8l-2,.16-1.74-.16H135q-6.74,0-8.36-4.42a6.86,6.86,0,0,1-.48-2.52q0-4.2,6.48-14.22l11.85-20.21q9.08-10.74,21.79-10.74"/><path class="cls-1" d="M223.43,64.65V65L201.16,103.5h45.17v.31l-22.58,13h-44.7q0-.47,14.22-25.27L208.58,64.8l.16-.15Z"/><path class="cls-1" d="M325,64.65V65l-21.64,13H273.06l-4.42,7.88h42v.33q-17.06,10-18,10.27h-30a51.31,51.31,0,0,0-4.25,7.57h44.85l.15.16h.16q-6.46,11.52-7.42,12.63H236.57l-.15-.16h-.16L265.8,64.65Z"/><path class="cls-1" d="M360.91,64.49q8.49,0,10.9,5.05l.31,1.9v.47q0,3.36-6,13.11Q348.48,116,347.8,116.6H333.27l7.1-12.94H318q-.61.63-7.42,12.94l-.16.16H295.53v-.16q21.62-38.1,23.68-41.06,6-6.63,9.63-8.05a22.91,22.91,0,0,1,9.48-2.84Zm-21,.16h22q7.62,0,9.95,5.67L372,71.6q0,3.66-7.59,15.79-7.5,13.52-16.74,29.06l-.63.15H333.59l-.32-.32,7-12.15v-.47H317.63q-.58.59-7.42,12.94l-.79.16H295.84l-.15-.16h-.16q21.54-38,23.36-40.58,9.41-11.38,21-11.37M324.89,91h19.92c2.2,0,3.3-.37,3.3-1.1,3.38-5,5.06-8,5.06-9V79.65c-.58-1.26-2.1-1.9-4.58-1.9h-9c-6,0-10.92,4.42-14.7,13.27m.33-.16h22.42q5.69-8.85,5.69-10v-.63c0-1.68-1.79-2.53-5.37-2.53h-7.42c-5.84,0-10.33,3.21-13.43,9.64a15.21,15.21,0,0,0-1.89,3.47"/><path class="cls-1" d="M417.65,64.65q8.1,0,10.57,4.1a5.06,5.06,0,0,1,.64,2.53v.32q0,3.7-6.16,13.42-15.15,27.32-18,31.74H390v-.16L409,83.12a6.08,6.08,0,0,0,.8-2.84v-.47c0-1.37-1-2.06-3-2.06H389.54q-21.84,38.58-22.43,39H352.74q0-.47,14.68-26.06l15-26Z"/></g></g></svg>