<svg xmlns="http://www.w3.org/2000/svg" viewBox="0 0 295.79 334.27"><defs><style>.cls-1{fill:#399564;}.cls-2{fill:#79ba49;}.cls-3{fill:#389463;}.cls-4{fill:#fff;}.cls-5{fill:#137b40;}.cls-6{fill:#fdfefd;}.cls-7{fill:#f9fbfa;}.cls-8{fill:#147c42;}.cls-9{fill:#0b7343;}.cls-10{fill:#0f7444;}.cls-11{fill:#f6f6f6;}.cls-12{fill:#147445;}.cls-13{fill:#107444;}.cls-14{fill:#167545;}.cls-15{fill:#097343;}</style></defs><g id="Capa_2" data-name="Capa 2"><g id="Capa_1-2" data-name="Capa 1"><path class="cls-1" d="M.71,143.26c.07,5.48-.11,11,.41,16.42a158.1,158.1,0,0,0,5,27.47A145.89,145.89,0,0,0,35,241.91c1.91,2.25,3.8,4.51,5.88,6.62.75.76,1.21.7,1.95,0,1-.91,1.67-2.17,3-2.62l2.63,2.86c1.66,1.8,1.67,1.81,0,3.45-2,2-4.14,3.87-6.11,5.91-.91.95-1.43.74-2.21-.1A148.53,148.53,0,0,1,8.21,205.29a146.94,146.94,0,0,1-8-55.79A27.86,27.86,0,0,1,.71,143.26Z"/><path class="cls-2" d="M250.69,245.12a7,7,0,0,0-2.4-2.51c-1.12-.94-1.23-1.54-.14-2.72A134.11,134.11,0,0,0,268,212.15a135.87,135.87,0,0,0,15.12-46.65c.28-2.07.35-4.17.51-6.25a1.29,1.29,0,0,0,.3-1c.1-6,.53-11.9.14-17.89a148.77,148.77,0,0,0-2.44-19.9,135.83,135.83,0,0,0-33.76-65.88,132.75,132.75,0,0,0-23-19.86,137.67,137.67,0,0,0-38.38-18.27,141.82,141.82,0,0,0-37.78-5.63,134,134,0,0,0-16.73,1,128,128,0,0,0-26.78,5.77A137.73,137.73,0,0,0,53.8,48.12,131.52,131.52,0,0,0,36,68.79a134.93,134.93,0,0,0-19.55,40.59,133.56,133.56,0,0,0-4.83,26.4c-.22,2.77,0,5.55-.41,8.29-.62,4.62.36,9.2.25,13.8,0,.09.14.19.22.29a128.14,128.14,0,0,0,12.2,47,133.9,133.9,0,0,0,23.91,35.33c1.22,1.3,1,2-.17,3a8.31,8.31,0,0,0-2.27,2.38c-1.37.46-2.07,1.71-3,2.62-.75.71-1.2.77-1.95,0-2.08-2.11-4-4.37-5.88-6.62A145.89,145.89,0,0,1,5.61,187.13a157.05,157.05,0,0,1-5-27.46C.06,154.2.24,148.72.16,143.24c.81-21,5.34-41,14.67-59.86q27.39-55.26,85.71-75.7A143.06,143.06,0,0,1,135.94.4c.56-.05,1.26.29,1.68-.4h19.63c.19.45.61.34.95.36a122.47,122.47,0,0,1,16.86,2.19Q248.85,17.93,281.63,85.8c8.58,17.75,12.7,36.72,13.45,56.41a166.93,166.93,0,0,1-1.81,28.85,151.89,151.89,0,0,1-12.72,40.47A142.65,142.65,0,0,1,266.33,235a115.87,115.87,0,0,1-10.52,12.58c-.85.86-1.38.89-2.23,0S252,245.59,250.69,245.12Z"/><path class="cls-1" d="M295.08,142.21c.62,1.16-.08,2.58.71,3.71v20.37c-.73,2.86-.67,5.81-1.05,8.71a147.06,147.06,0,0,1-30.31,72.8c-2.54,3.27-5.26,6.37-8,9.45-.7.77-1.11,1.05-2,.16-2.36-2.36-4.82-4.6-7.27-6.86-.57-.53-.64-.87-.06-1.47,1.25-1.28,2.42-2.64,3.62-4,1.27.47,2,1.6,2.89,2.51s1.38.85,2.23,0A115.87,115.87,0,0,0,266.33,235a142.65,142.65,0,0,0,14.22-23.51,151.89,151.89,0,0,0,12.72-40.47A166.93,166.93,0,0,0,295.08,142.21Z"/><path class="cls-3" d="M11.66,158.16c-.08-.1-.22-.2-.22-.29.11-4.6-.87-9.18-.25-13.8.36-2.74.19-5.52.41-8.29a133.56,133.56,0,0,1,4.83-26.4A134.93,134.93,0,0,1,36,68.79,131.52,131.52,0,0,1,53.8,48.12a137.73,137.73,0,0,1,51.35-30.55,128,128,0,0,1,26.78-5.77,134,134,0,0,1,16.73-1,141.82,141.82,0,0,1,37.78,5.63,137.67,137.67,0,0,1,38.38,18.27,132.75,132.75,0,0,1,23,19.86,135.83,135.83,0,0,1,33.76,65.88,148.77,148.77,0,0,1,2.44,19.9c.39,6,0,11.93-.14,17.89a1.29,1.29,0,0,1-.3,1,146.94,146.94,0,0,0-2.36-27.78,133.35,133.35,0,0,0-26.72-58.81C234,46.82,207.65,30,175.29,23.55,134,15.33,96.36,24.17,63.21,50.21c-24.86,19.53-40.71,45.07-48,75.86a127.52,127.52,0,0,0-3.35,26.18C11.84,154.22,11.74,156.19,11.66,158.16Z"/><path class="cls-4" d="M147.37,334.26v-.12c15.85,0,31.71.17,47.56-.08a51.91,51.91,0,0,0,22.93-5.33c4.65-2.36,7.18-5.73,7-11.37-.36-9.4-.42-18.85,0-28.25.29-6.23-2.54-9.81-7.71-12.28a52.72,52.72,0,0,0-22.58-5q-45.09-.36-90.18-.23c-9.13,0-18.18,1.19-26.59,5.27-5.19,2.52-8,6.24-7.71,12.36.33,8.81.45,17.66,0,26.46-.4,7.33,3,11.46,9.29,14.06,8.15,3.36,16.69,4.45,25.41,4.47C119,334.29,133.16,334.26,147.37,334.26Z"/><path class="cls-5" d="M147.37,334.26c-14.21,0-28.42,0-42.63,0-8.72,0-17.26-1.11-25.41-4.47-6.32-2.6-9.69-6.73-9.29-14.06.48-8.8.36-17.65,0-26.46-.24-6.12,2.52-9.84,7.71-12.36,8.41-4.08,17.46-5.24,26.59-5.27q45.09-.17,90.18.23a52.72,52.72,0,0,1,22.58,5c5.17,2.47,8,6.05,7.71,12.28-.43,9.4-.37,18.85,0,28.25.21,5.64-2.32,9-7,11.37a51.91,51.91,0,0,1-22.93,5.33c-15.85.25-31.71.08-47.56.08Zm-39.11-46.67c-2.54,0-5.08,0-7.62,0-1,0-2.32-.31-2.22,1.36.06,1.08-.69,2.8.89,3.06,2.66.44,1.85,2.31,1.87,3.76q.1,8.52,0,17c0,1.43.84,3.29-1.9,3.69-1.27.19-.81,2-.85,3.15,0,.94.64,1.27,1.45,1.24,6.83-.27,13.81,1.09,20.44-1.49s10.28-9.57,9.74-18c-.42-6.55-5-11.55-12-13.26C114.82,287.34,111.54,287.55,108.26,287.59Zm71.14-.12v.11h-8.06c-7,0-6.72,0-7.28,7.19-.31,3.92,1.87,3.74,4.29,3.54,2.12-.17,1.72-2.14,2-3.47a2.79,2.79,0,0,1,3.13-2.53c2.31.05,1.32,2,1.34,3,.11,6,.07,11.95,0,17.92,0,1.35.6,3.18-1.94,3.05-2.3-.11-1.49,1.7-1.61,2.87-.19,1.84,1.12,1.74,2.34,1.74h11.65c1,0,2.31.11,2.1-1.49-.14-1.13.92-3.05-1.33-3.08s-2.22-1.39-2.22-3c0-6.12,0-12.24.05-18.36,0-1-.72-2.65,1.22-2.72a2.87,2.87,0,0,1,3,1.52,10.94,10.94,0,0,1,.51,2.63c.38,2.5,2.21,1.77,3.79,1.79,1.8,0,2.32-.89,2.21-2.52s-.21-3.28-.17-4.92c.05-2.67-1.07-3.61-3.81-3.42C186.88,287.67,183.14,287.47,179.4,287.47Zm-18,6.49c-.33-6.78-1-7.44-7.67-7.08a28.48,28.48,0,0,0-5.74.9,18.55,18.55,0,0,0-13.57,20.09c.78,7.93,6.24,12.82,15.18,13.59a25.63,25.63,0,0,0,8.39-1.15c1.94-.48,4.22-.48,3.51-3.83-.77-3.62-2.89-1.55-4.41-1.29-6.28,1-10-.31-11.92-4.47-2.45-5.47-.76-13.93,3.38-16.89,3.33-2.38,6.12-1.66,6.8,2.28s3.12,3.08,5.2,2.29C162.91,297.52,160.86,295.23,161.44,294Z"/><path class="cls-6" d="M108.26,287.59c3.28,0,6.56-.25,9.81.54,7,1.71,11.57,6.71,12,13.26.54,8.45-3.16,15.46-9.74,18s-13.61,1.22-20.44,1.49c-.81,0-1.49-.3-1.45-1.24,0-1.14-.42-3,.85-3.15,2.74-.4,1.88-2.26,1.9-3.69q.1-8.52,0-17c0-1.45.79-3.32-1.87-3.76-1.58-.26-.83-2-.89-3.06-.1-1.67,1.24-1.35,2.22-1.36C103.18,287.56,105.72,287.59,108.26,287.59Zm2,16.69h-.06c0,3.12.08,6.25,0,9.38-.09,2.52,1.14,3.13,3.33,2.69a7.57,7.57,0,0,0,5.67-4.57,17.52,17.52,0,0,0,0-14.7,8.52,8.52,0,0,0-5-4.8c-2.35-.83-4.08-.61-3.93,2.62S110.24,301.15,110.24,304.28Z"/><path class="cls-6" d="M179.4,287.47c3.74,0,7.48.2,11.2-.07,2.74-.19,3.86.75,3.81,3.42,0,1.64.06,3.29.17,4.92s-.41,2.54-2.21,2.52c-1.58,0-3.41.71-3.79-1.79a10.94,10.94,0,0,0-.51-2.63,2.87,2.87,0,0,0-3-1.52c-1.94.07-1.21,1.73-1.22,2.72-.08,6.12,0,12.24-.05,18.36,0,1.57-.06,2.94,2.22,3s1.19,1.95,1.33,3.08c.21,1.6-1.06,1.48-2.1,1.49H173.59c-1.22,0-2.53.1-2.34-1.74.12-1.17-.69-3,1.61-2.87,2.54.13,1.94-1.7,1.94-3.05,0-6,.08-11.95,0-17.92,0-1.07,1-3-1.34-3a2.79,2.79,0,0,0-3.13,2.53c-.23,1.33.17,3.3-2,3.47-2.42.2-4.6.38-4.29-3.54.56-7.17.3-7.19,7.28-7.19h8.06Z"/><path class="cls-7" d="M161.44,294c-.58,1.27,1.47,3.56-.85,4.44-2.08.79-4.52,1.66-5.2-2.29s-3.47-4.66-6.8-2.28c-4.14,3-5.83,11.42-3.38,16.89,1.87,4.16,5.64,5.5,11.92,4.47,1.52-.26,3.64-2.33,4.41,1.29.71,3.35-1.57,3.35-3.51,3.83a25.63,25.63,0,0,1-8.39,1.15c-8.94-.77-14.4-5.66-15.18-13.59A18.55,18.55,0,0,1,148,287.78a28.48,28.48,0,0,1,5.74-.9C160.41,286.52,161.11,287.18,161.44,294Z"/><path class="cls-8" d="M110.24,304.28c0-3.13.11-6.26,0-9.38s1.58-3.45,3.93-2.62a8.52,8.52,0,0,1,5,4.8,17.52,17.52,0,0,1,0,14.7,7.57,7.57,0,0,1-5.67,4.57c-2.19.44-3.42-.17-3.33-2.69.1-3.13,0-6.26,0-9.38Z"/><path class="cls-4" d="M162.89,230.78c-6.68,3.7-13.33,7.45-20,11.06-1.28.69-1.3,1.2-.62,2.32,1.86,3.05,3.69,6.12,5.35,9.28.68,1.29,1.2,1.3,2.34.64,8.72-5,17.47-9.89,26.2-14.83,5.19,1.42,10.36,2.39,15.82,1.59,8-1.18,14.63-4.8,19.45-11.25,6.91-9.26,7.23-19.28,2.73-29.67-3-6.9-7.8-12.49-12.59-18.12s-8.51-11.43-8-19.23c.25-3.41-2.39-5.54-5.74-5.09a6.38,6.38,0,0,0-3.85,2.05c-2.23,2.37-4.42,4.78-6.62,7.17,0-1,0-2,0-3,0-2.83.6-5.65.08-8.48-1-5.56-4-10.16-7.42-14.48-9.08-11.38-18.21-22.72-27.24-34.14a9.87,9.87,0,0,0-6.38-3.66,15.34,15.34,0,0,0-7.12.59c-6.49,1.92-13,3.87-19.48,5.75a11.65,11.65,0,0,0-7.36,6c-1.4,2.66-2.62,5.43-3.79,8.21A16.92,16.92,0,0,0,97.3,132a6.6,6.6,0,0,0,4,5.75c2.33,1,4.35.14,6.17-1.31a20,20,0,0,0,7-10,3,3,0,0,1,2.86-2.38c4.49-.75,9-1.5,12.84-4.3a40,40,0,0,0,3.3,9c1.11,2,2.36,4,4.57,4.9a1.64,1.64,0,0,1,1.16,1.9,67.83,67.83,0,0,0,3,22.61,1.41,1.41,0,0,1-.56,1.85,39,39,0,0,1-22.9,8.76,2.91,2.91,0,0,1-2.16-.78,115.4,115.4,0,0,1-8.87-8.4c-3.48-3.72-6.35-7.65-7.27-13a30.91,30.91,0,0,0-6.49-14.14c-3.72-4.64-8.46-6.85-14.47-5.82-.84.14-1.73.19-1.69,1.45.15,4.45.33,8.88,2.06,13.07a54.91,54.91,0,0,1,2.33,8.15c.93,3.87.8,8,2.78,11.61,1.84,3.41,3.46,6.95,5.51,10.24,3.39,5.46,6.84,10.88,12.47,14.42a4.13,4.13,0,0,1,1,1.11,60.13,60.13,0,0,1,7.8,14.62,36.49,36.49,0,0,0,4.06,8.06c7.39,11,16.15,20.85,24.88,30.74.77.87,1.29.72,2.14.24q9.65-5.44,19.33-10.83A1.08,1.08,0,0,1,162.89,230.78Z"/><path class="cls-4" d="M175.81,145.26c.05.17,0,.52.27.4s.12-.41-.06-.59c-1.24-4.9-2.52-9.78-3.71-14.68-2.28-9.39-5.77-18.47-7.77-27.91a60.19,60.19,0,0,0-6.49-17.16c-6.47-11.48-12.69-23.09-16.42-35.84A12.47,12.47,0,0,0,139.92,46c-1.75-2.55-3.92-3.54-6.44-2.9A6.29,6.29,0,0,0,128.75,49,18.33,18.33,0,0,0,130,56.81q7,19,13.89,38a17.37,17.37,0,0,1,.68,9.12,2.68,2.68,0,0,0,.55,2.46q10.35,13,20.66,26.12C169.16,136.71,172.48,141,175.81,145.26Z"/><path class="cls-4" d="M173.13,126c.1-.85.17-1.21.19-1.58.36-6.88-.6-13.66-1.75-20.4-1.92-11.29-4.2-22.52-5.46-33.93a83.46,83.46,0,0,0-3-15.4A6,6,0,0,0,152,53.94c-1.55,4.47-1.88,9.18,0,13.55,2.91,6.84,6.52,13.39,9.44,20.24C166.59,99.88,170,112.61,173.13,126Z"/><path class="cls-4" d="M183.67,127.88c-.58-9.92-1.29-19.25-1.34-28.62A12.2,12.2,0,0,0,180,91.62c-1.63-2.11-4.42-2.14-5.75,0a7.49,7.49,0,0,0-.57,6.9,17.78,17.78,0,0,1,1.1,3.69c1.48,9.31,1,18.66.56,28-.13,3.05-.07,6.06,1.47,8.79,1,1.81,1.65,1.83,3,.32C182.88,135.9,184.37,132,183.67,127.88Z"/><path class="cls-9" d="M162.08,229.63q-9.66,5.4-19.33,10.83c-.85.48-1.37.63-2.14-.24-8.73-9.89-17.49-19.76-24.88-30.74a36.49,36.49,0,0,1-4.06-8.06,60.13,60.13,0,0,0-7.8-14.62,4.13,4.13,0,0,0-1-1.11c-5.63-3.54-9.08-9-12.47-14.42-2-3.29-3.67-6.83-5.51-10.24-2-3.66-1.85-7.74-2.78-11.61a54.91,54.91,0,0,0-2.33-8.15c-1.73-4.19-1.91-8.62-2.06-13.07,0-1.26.85-1.31,1.69-1.45,6-1,10.75,1.18,14.47,5.82a30.91,30.91,0,0,1,6.49,14.14c.92,5.33,3.79,9.26,7.27,13a115.4,115.4,0,0,0,8.87,8.4,2.91,2.91,0,0,0,2.16.78,39,39,0,0,0,22.9-8.76,1.41,1.41,0,0,0,.56-1.85,67.83,67.83,0,0,1-3-22.61,1.64,1.64,0,0,0-1.16-1.9c-2.21-.93-3.46-2.88-4.57-4.9a40,40,0,0,1-3.3-9c-3.84,2.8-8.35,3.55-12.84,4.3a3,3,0,0,0-2.86,2.38,20,20,0,0,1-7,10c-1.82,1.45-3.84,2.31-6.17,1.31a6.6,6.6,0,0,1-4-5.75,16.92,16.92,0,0,1,1.36-8.49c1.17-2.78,2.39-5.55,3.79-8.21a11.65,11.65,0,0,1,7.36-6c6.5-1.88,13-3.83,19.48-5.75a15.34,15.34,0,0,1,7.12-.59,9.87,9.87,0,0,1,6.38,3.66c9,11.42,18.16,22.76,27.24,34.14,3.45,4.32,6.38,8.92,7.42,14.48.52,2.83-.09,5.65-.08,8.48,0,1,0,2,0,3-1.16,1.59-2.34,3.18-3.48,4.79-7.4,10.44-13.58,21.47-16,34.23-1.51,8.12-1,16,4,23.05A1,1,0,0,1,162.08,229.63Z"/><path class="cls-10" d="M175.81,145.26c-3.33-4.27-6.65-8.55-10-12.8q-10.31-13.08-20.66-26.12a2.68,2.68,0,0,1-.55-2.46,17.37,17.37,0,0,0-.68-9.12Q137,75.77,130,56.81A18.33,18.33,0,0,1,128.75,49a6.29,6.29,0,0,1,4.73-5.92c2.52-.64,4.69.35,6.44,2.9a12.47,12.47,0,0,1,1.71,3.47c3.73,12.75,10,24.36,16.42,35.84a60.19,60.19,0,0,1,6.49,17.16c2,9.44,5.49,18.52,7.77,27.91,1.19,4.9,2.47,9.78,3.71,14.68Z"/><path class="cls-11" d="M162.08,229.63a1,1,0,0,0-.2-.86c-4.93-7.06-5.47-14.93-4-23.05,2.37-12.76,8.55-23.79,16-34.23,1.14-1.61,2.32-3.2,3.48-4.79,2.2-2.39,4.39-4.8,6.62-7.17a6.38,6.38,0,0,1,3.85-2.05c3.35-.45,6,1.68,5.74,5.09-.55,7.8,3.24,13.69,8,19.23s9.61,11.22,12.59,18.12c4.5,10.39,4.18,20.41-2.73,29.67-4.82,6.45-11.41,10.07-19.45,11.25-5.46.8-10.63-.17-15.82-1.59-4.6-2.12-9.1-4.41-12.54-8.31-.12-.14-.45-.11-.68-.16A1.08,1.08,0,0,0,162.08,229.63Zm-.73-18.07c0,8.34,2.1,14.66,8,19.06,8.43,6.34,17.8,8.23,27.91,4.59a23.68,23.68,0,0,0,15.71-21.89c.07-5.85-2-11.1-4.84-16.07-3-5.17-7.05-9.5-10.8-14.07-4.5-5.5-8.07-11.37-7.82-18.85,0-.92.59-2.22-.54-2.68s-1.84.72-2.64,1.36a3.71,3.71,0,0,0-.39.4,106.29,106.29,0,0,0-18.32,26.53C164.08,197.13,161.5,204.61,161.35,211.56Z"/><path class="cls-12" d="M173.13,126c-3.16-13.37-6.54-26.1-11.71-38.25-2.92-6.85-6.53-13.4-9.44-20.24-1.87-4.37-1.54-9.08,0-13.55a6,6,0,0,1,11.15.73,83.46,83.46,0,0,1,3,15.4c1.26,11.41,3.54,22.64,5.46,33.93,1.15,6.74,2.11,13.52,1.75,20.4C173.3,124.77,173.23,125.13,173.13,126Z"/><path class="cls-13" d="M162.89,230.78c.23.05.56,0,.68.16,3.44,3.9,7.94,6.19,12.54,8.31-8.73,4.94-17.48,9.86-26.2,14.83-1.14.66-1.66.65-2.34-.64-1.66-3.16-3.49-6.23-5.35-9.28-.68-1.12-.66-1.63.62-2.32C149.56,238.23,156.21,234.48,162.89,230.78Z"/><path class="cls-14" d="M183.67,127.88c.7,4.07-.79,8-3.88,11.46-1.35,1.51-2,1.49-3-.32-1.54-2.73-1.6-5.74-1.47-8.79.39-9.34.92-18.69-.56-28a17.78,17.78,0,0,0-1.1-3.69,7.49,7.49,0,0,1,.57-6.9c1.33-2.16,4.12-2.13,5.75,0a12.2,12.2,0,0,1,2.35,7.64C182.38,108.63,183.09,118,183.67,127.88Z"/><path class="cls-10" d="M176,145.07c.18.18.24.52.06.59s-.22-.23-.27-.4Z"/><path class="cls-15" d="M161.35,211.56c.15-6.95,2.73-14.43,6.23-21.62a106.29,106.29,0,0,1,18.32-26.53,3.71,3.71,0,0,1,.39-.4c.8-.64,1.55-1.81,2.64-1.36s.57,1.76.54,2.68c-.25,7.48,3.32,13.35,7.82,18.85,3.75,4.57,7.82,8.9,10.8,14.07,2.88,5,4.91,10.22,4.84,16.07a23.68,23.68,0,0,1-15.71,21.89c-10.11,3.64-19.48,1.75-27.91-4.59C163.45,226.22,161.3,219.9,161.35,211.56Zm11.36-8.73c-.53,1.6-1,3.22-1.59,4.8-2.22,6-.73,11.41,3,16.11,4.44,5.61,9.56,7.11,14.72,2.76,2.6-2.19,2.8-3.93.71-6.63a24,24,0,0,0-6.7-5.46C178.3,211.62,174.26,208.43,172.71,202.83Z"/><path class="cls-11" d="M172.71,202.83c1.55,5.6,5.59,8.79,10.13,11.58a24,24,0,0,1,6.7,5.46c2.09,2.7,1.89,4.44-.71,6.63-5.16,4.35-10.28,2.85-14.72-2.76-3.72-4.7-5.21-10.14-3-16.11C171.71,206.05,172.18,204.43,172.71,202.83Z"/></g></g></svg>