<svg xmlns="http://www.w3.org/2000/svg" viewBox="0 0 385.1 398.79"><defs><style>.cls-1{fill:#487629;}.cls-2{fill:#ffe006;}.cls-3{fill:#49762e;}</style></defs><g id="Capa_2" data-name="Capa 2"><g id="Capa_1-2" data-name="Capa 1"><path class="cls-1" d="M385.1,55.1,362.41,172.88c-31.18,110.51-75,167.49-183,222l-2.56,1.29c-1.75.88-3.51,1.76-5.28,2.62l-3.07-1.52a380.24,380.24,0,0,1-51-30.42c-32.32-22.93-58.7-49.79-78.23-79.29-24.82-39-38.52-82.18-39.27-127,0-1.3,0-2.59,0-3.89V62.44A541.36,541.36,0,0,1,76.36,28.76l3.34-1.14C96.34,22,113.73,14.46,130,10.09c2.42-.64,4.8-1.28,7.17-1.87C152.56,4.32,164,0,177.29,0,255.46,0,385.1,55.1,385.1,55.1Z"/><path class="cls-2" d="M364.11,65.42,342.66,176.29c-29.45,103.85-61.9,166.87-163.21,218.59l-2.56,1.29c-1.75.88-3.51,1.76-5.28,2.62l-3.07-1.52a380.24,380.24,0,0,1-51-30.42c-32.32-22.93-58.7-49.79-78.23-79.29C13.8,249,0,205.82,0,161V63.86H0c1.19-.48,31-12.69,66.62-25.09,2.86-1,5.76-2,8.67-3,15.73-5.31,32.18-10.5,47.53-14.61,7.48-2,14.68-3.76,21.41-5.13,10.47-2.15,19.76-3.43,27.12-3.43C245.31,12.62,364.11,65.42,364.11,65.42Z"/><path class="cls-3" d="M143.7,96.91H255.94v.8L200,130.1H139.22q-19.81,0-36.74,32.42Q89.82,181.34,89.82,187.4c.68,4.74,3.42,7.11,8.16,7.11l1.24.4,4.88-.4H180l.4.4h.4q-18,31.91-19.17,32.39H89.82l-5.3.4L80,227.3H62.89q-17.45,0-21.63-11.05c-.55-.79-1-2.91-1.22-6.32q0-10.49,16.73-35.56L87.38,123.8q23.48-26.88,56.32-26.89"/><path class="cls-3" d="M217.47,155.89,315,154.62v.78l-48.15,32.67-52.86.68q-17.22.23-31.5,32.46Q171.79,240,171.88,246c.65,4.67,3.06,7,7.18,6.94l1.08.38,4.25-.45,66-.86.36.4h.35q-15.26,31.75-16.22,32.24l-62.45.81-4.6.45-3.91-.34-14.9.19q-15.16.19-18.95-10.68c-.49-.77-.88-2.87-1.15-6.23q-.14-10.37,14.06-35.35l25.91-50.35q20-26.83,48.59-27.21"/></g></g></svg>