<svg xmlns="http://www.w3.org/2000/svg" viewBox="0 0 570.33 244.42"><defs><style>.cls-1{fill:#266041;}.cls-2{fill:#00783f;}.cls-3{fill:#3dae2b;}.cls-4{fill:#6abf4b;}.cls-5{fill:#a1d683;}.cls-6{fill:#badf93;}.cls-7{fill:#ffe100;}.cls-8{fill:#487629;}</style></defs><g id="Capa_2" data-name="Capa 2"><g id="Layer_1" data-name="Layer 1"><path class="cls-1" d="M570.33,40.74V32.67c0-18-7.89-32.67-28.24-32.67H477.65V40.74Z"/><rect class="cls-2" x="477.65" y="40.74" width="92.68" height="40.73"/><rect class="cls-3" x="477.65" y="81.47" width="92.68" height="40.73"/><rect class="cls-4" x="477.65" y="122.21" width="92.68" height="40.73"/><rect class="cls-5" x="477.65" y="162.94" width="92.68" height="40.74"/><path class="cls-6" d="M570.33,211.74v-8.06H477.65v40.74h64.44C562.44,244.42,570.33,229.79,570.33,211.74Z"/><path class="cls-7" d="M28.23,0C7.88,0,0,14.63,0,32.67V211.74c0,18,7.88,32.68,28.23,32.68H477.65V0Z"/><path class="cls-8" d="M65.7,71.47h39.87v.3L85.71,83.66H64.1q-7,0-13,11.89-4.5,6.92-4.5,9.14a2.66,2.66,0,0,0,2.9,2.6l.44.15,1.74-.15h27l.14.15h.15q-6.4,11.72-6.82,11.89H46.55l-1.89.15-1.59-.15H37c-4.13,0-6.69-1.36-7.68-4.06a5.94,5.94,0,0,1-.44-2.32q0-3.84,6-13L45.68,81.34Q54,71.47,65.7,71.47Z"/><path class="cls-8" d="M104.67,71.63h13.19l.29.28q-.33.18-10.73,18.85h20.3l11-19.13h13.49v.28L125.4,119.48H111.77l-.29-.29,10.73-18.71H101.62q-9.93,18.12-10.87,19H77.39v-.15Q103.4,73.46,104.67,71.63Z"/><path class="cls-8" d="M157.19,71.47h54.53v.3L191.85,83.66h-27.7a82,82,0,0,0-4.21,7.25h38.55v.29l-16.39,9.42h-28l-3.76,6.82h41.33l.14.14H192q-6.57,11.72-7,11.9H130.23l-.15-.15h-.15Q156.6,72.07,157.19,71.47Z"/><path class="cls-8" d="M211.46,71.77h61.06c6.59,0,10.22,1.44,10.86,4.34l.3,1.75q0,3.63-6.24,13.78-8.91,16.45-15.51,27.84H248.44v-.29q17.28-30.51,18.27-32.77v-.59c0-1.15-1.3-1.74-3.92-1.74H250.33q-.59.45-17,29.44l-3.63,6H216.1q0-.41,16.54-29l3.63-6.38H218.14l-20.31,35.39H184.35q0-.56,22.33-39.45Q210.93,72.2,211.46,71.77Z"/><path class="cls-8" d="M306.23,71.77v.29L279.4,119.33l-.14.15H266.05l-.13-.15h-.15l26.68-47.56Z"/><path class="cls-8" d="M324.43,71.47h41v.16q-.64.65-17.4,10.58a7.11,7.11,0,0,1-2.62,1.45H325c-5.41,0-9.78,3.48-13.05,10.44q-5.37,8.24-5.37,10.15v.58c0,1.64,1.12,2.46,3.33,2.46h28.73l.28.29q-.87,1.15-6.68,11.75l-18.4.15H298.47q-9.72,0-9.72-6v-.44q0-4.05,4.51-10.88,10.5-18.36,12.9-21.75,4.48-5.74,13.92-8.4A19.77,19.77,0,0,1,324.43,71.47Z"/><path class="cls-8" d="M397,71.47q7.8,0,10,4.64l.29,1.75v.43q0,3.09-5.51,12-16.22,28.38-16.82,29H371.6l6.52-11.89H357.54c-.4.39-2.66,4.35-6.83,11.89l-.14.15H336.94v-.15q19.88-35,21.75-37.71,5.55-6.08,8.84-7.39a21.09,21.09,0,0,1,8.7-2.6ZM364.2,95.69h20.59c3.49-5.41,5.22-8.45,5.22-9.14V86c0-1.53-1.63-2.31-4.93-2.31h-6.82q-8,0-12.32,8.85A14.48,14.48,0,0,0,364.2,95.69Z"/><path class="cls-8" d="M416.87,71.63h13.35l.14.14h.14l-20.44,35.37v.15h41.46v.29l-20.72,11.9H389.46v-.15Q415.86,72.91,416.87,71.63Z"/><path class="cls-8" d="M181.55,130.68h39.89V131l-19.88,11.89H180q-7,0-13.05,11.9c-3,4.61-4.5,7.67-4.5,9.13a2.67,2.67,0,0,0,2.91,2.61l.43.15,1.74-.15h27l.14.15h.15q-6.42,11.7-6.82,11.89H162.41l-1.88.15-1.6-.15h-6.09c-4.12,0-6.69-1.36-7.68-4.06a6.19,6.19,0,0,1-.44-2.32q0-3.84,5.95-13l10.88-18.56Q169.89,130.7,181.55,130.68Z"/><path class="cls-8" d="M234,130.83v.29L213.57,166.5H255v.29l-20.74,11.9h-41q0-.45,13-23.21L220.37,131l.16-.14Z"/><path class="cls-8" d="M327.29,130.83v.29L307.42,143H279.59l-4.06,7.25h38.52v.3q-15.66,9.15-16.53,9.43H270a48.42,48.42,0,0,0-3.92,6.95h41.2l.13.14h.15q-6,10.59-6.82,11.61H246.08l-.15-.15h-.13l27.11-47.71Z"/><path class="cls-8" d="M360.25,130.68q7.8,0,10,4.65l.29,1.74v.43c0,2.06-1.83,6.06-5.5,12q-16.2,28.4-16.83,29H334.87l6.53-11.89H320.81q-.58.57-6.82,11.89l-.14.15H300.21v-.15q19.88-35,21.75-37.71,5.55-6.09,8.85-7.39a21.13,21.13,0,0,1,8.7-2.61Zm-19.29.15h20.16q7,0,9.13,5.22l.15,1.16q0,3.38-7,14.5-6.9,12.42-15.37,26.68l-.58.15H335.16l-.29-.3,6.38-11.16v-.43H320.51q-.54.54-6.82,11.89l-.72.15H300.5l-.14-.15h-.15q19.8-34.87,21.46-37.26Q330.31,130.82,341,130.83Zm-13.78,24.22h18.27c2,0,3.05-.34,3.05-1,3.1-4.55,4.65-7.3,4.65-8.28v-1.15c-.53-1.16-1.94-1.75-4.21-1.75h-8.27Q332.36,142.86,327.18,155.05Zm.29-.15h20.6q5.21-8.11,5.21-9.14v-.58c0-1.54-1.64-2.32-4.93-2.32h-6.81q-8,0-12.33,8.85A14.4,14.4,0,0,0,327.47,154.9Z"/><path class="cls-8" d="M412.35,130.83q7.42,0,9.7,3.77a4.6,4.6,0,0,1,.58,2.32v.29q0,3.42-5.66,12.33-13.91,25.08-16.52,29.15H387v-.15l17.39-30.74a5.59,5.59,0,0,0,.74-2.62v-.43c0-1.26-.93-1.89-2.75-1.89H386.54q-20.06,35.43-20.6,35.83h-13.2q0-.45,13.49-23.93L380,130.83Z"/></g></g></svg>